<svg xmlns="http://www.w3.org/2000/svg" version="1.1" xmlns:xlink="http://www.w3.org/1999/xlink" xmlns:svgjs="http://svgjs.dev/svgjs" width="2000" height="1500" viewBox="0 0 2000 1500"><rect width="2000" height="1500" fill="#ffffff"></rect><g transform="matrix(0.75,0,0,0.75,250,281.25)"><svg viewBox="0 0 512 320" data-background-color="#528265" preserveAspectRatio="xMidYMid meet" height="1250" width="2000" xmlns="http://www.w3.org/2000/svg" xmlns:xlink="http://www.w3.org/1999/xlink"><g id="tight-bounds" transform="matrix(1,0,0,1,0,0)"><svg viewBox="0 0 512 320" height="320" width="512"><g><svg></svg></g><g><svg viewBox="0 0 512 320" height="320" width="512"><g><path d="M96 160c0-88.366 71.634-160 160-160 88.366 0 160 71.634 160 160 0 88.366-71.634 160-160 160-88.366 0-160-71.634-160-160zM256 317.841c87.173 0 157.841-70.668 157.841-157.841 0-87.173-70.668-157.841-157.841-157.841-87.173 0-157.841 70.668-157.841 157.841 0 87.173 70.668 157.841 157.841 157.841z" fill="#000000" fill-rule="nonzero" stroke="none" stroke-width="1" stroke-linecap="butt" stroke-linejoin="miter" stroke-miterlimit="10" stroke-dasharray="" stroke-dashoffset="0" font-family="none" font-weight="none" font-size="none" text-anchor="none" style="mix-blend-mode: normal" data-fill-palette-color="tertiary"></path></g><g transform="matrix(1,0,0,1,116.13999999999999,20.139999999999986)"><svg viewBox="0 0 279.72 279.72" height="279.72" width="279.72"><g><svg viewBox="0 0 279.72 279.72" height="279.72" width="279.72"><g><svg viewBox="0 0 279.72 279.72" height="279.72" width="279.72"><g id="textblocktransform"><svg viewBox="0 0 279.72 279.72" height="279.72" width="279.72" id="textblock"><g><svg viewBox="0 0 279.72 279.72" height="279.72" width="279.72"><g transform="matrix(1,0,0,1,73.92936372216631,92.45638713740455)"><svg viewBox="0 0 131.8612725556674 94.80722572519093" height="94.80722572519093" width="131.8612725556674"><g><svg xmlns="http://www.w3.org/2000/svg" xmlns:xlink="http://www.w3.org/1999/xlink" version="1.1" x="0" y="0" viewBox="9.666 21.00033765356684 80.668 57.999662346433155" enable-background="new 0 0 100 100" xml:space="preserve" height="94.80722572519093" width="131.8612725556674" class="icon-kg-0" data-fill-palette-color="accent" id="kg-0"><path d="M32.951 28.716c-0.781-0.781-2.047-0.781-2.828 0l-19.871 19.87C9.877 48.961 9.666 49.47 9.666 50s0.211 1.039 0.586 1.414l19.871 19.87c0.391 0.391 0.902 0.586 1.414 0.586s1.023-0.195 1.414-0.586c0.781-0.781 0.781-2.047 0-2.828L14.494 50l18.457-18.456C33.732 30.763 33.732 29.497 32.951 28.716zM89.748 48.586l-19.871-19.87c-0.781-0.781-2.047-0.781-2.828 0s-0.781 2.047 0 2.828L85.506 50 67.049 68.456c-0.781 0.781-0.781 2.047 0 2.828 0.391 0.391 0.902 0.586 1.414 0.586s1.023-0.195 1.414-0.586l19.871-19.87c0.375-0.375 0.586-0.884 0.586-1.414S90.123 48.961 89.748 48.586zM63.208 21.182c-1.002-0.458-2.191-0.021-2.651 0.985l-24.75 54c-0.46 1.004-0.02 2.19 0.985 2.651C37.062 78.941 37.345 79 37.624 79c0.758 0 1.482-0.433 1.819-1.167l24.75-54C64.653 22.829 64.213 21.643 63.208 21.182z" fill="#000000" data-fill-palette-color="accent"></path></svg></g></svg></g><g><path d="M26.513 94.419v0c-1.688-0.603-3.332-0.552-4.93 0.153-1.596 0.699-2.827 2.258-3.691 4.679v0c-0.208 0.582-0.493 1.548-0.855 2.898v0c0.275 0.218 0.687 0.425 1.237 0.622v0l5.759 2.057c2.001 0.715 3.248 0.924 3.742 0.628v0c0.51-0.262 0.948-0.906 1.313-1.932v0c0.234-0.657 0.415-1.329 0.541-2.017 0.124-0.682 0.195-1.524 0.214-2.525 0.013-1.004-0.258-1.915-0.811-2.733-0.548-0.816-1.387-1.426-2.519-1.83zM23.004 108.331v0l-14.904-5.323c-1.557-0.556-2.722-0.866-3.496-0.931v0c-0.239-0.001-0.575 0.316-1.006 0.952-0.435 0.627-0.715 1.113-0.837 1.457v0c-0.038 0.106-0.213 0.104-0.526-0.008v0c-0.344-0.123-0.55-0.256-0.619-0.401v0c0.545-1.349 1.133-2.906 1.763-4.669v0c0.478-1.338 0.864-2.438 1.157-3.299 0.287-0.863 0.548-1.623 0.782-2.28v0c0.243-0.682 0.552-1.358 0.925-2.028 0.371-0.664 0.85-1.314 1.438-1.951 0.581-0.639 1.212-1.164 1.895-1.575 0.681-0.406 1.475-0.654 2.381-0.747 0.907-0.092 1.833 0.031 2.777 0.368 0.95 0.339 1.724 0.958 2.321 1.855 0.605 0.893 0.972 1.651 1.101 2.275 0.127 0.631 0.192 1.151 0.194 1.561v0c0.005 0.242 0.063 0.336 0.173 0.284v0c0.548-0.961 1.725-1.919 3.533-2.874 1.814-0.953 3.599-1.115 5.356-0.487v0c2.264 0.808 3.735 2.363 4.415 4.664 0.671 2.306 0.467 4.972-0.614 7.998v0l-1.93 5.403-1.583 4.817c-0.108 0.046-0.334 0.008-0.678-0.115-0.338-0.121-0.493-0.218-0.466-0.293v0c0.123-0.344 0.21-0.884 0.261-1.62 0.058-0.734-0.009-1.209-0.199-1.425v0c-0.252-0.301-1.456-0.837-3.614-1.608zM16.756 96.804v0c0.286-1.117 0.236-2.151-0.151-3.1-0.391-0.958-1.125-1.628-2.2-2.013v0c-1.813-0.648-3.388-0.699-4.725-0.154-1.337 0.545-2.325 1.712-2.964 3.5v0c-0.433 1.213-0.676 2.18-0.729 2.902v0c-0.025 0.167 0.066 0.288 0.273 0.362v0l3.929 1.583 4.699 1.678c0.181 0.065 0.581-0.769 1.2-2.501v0c0.301-0.844 0.524-1.597 0.668-2.257z" fill="#000000" data-fill-palette-color="primary"></path><path d="M29.351 52.211v0c0.835-0.945 2.237-2.617 4.206-5.015 1.964-2.393 3.465-4.177 4.502-5.352v0c0.682 0.452 1.626 0.998 2.832 1.638 1.211 0.635 1.958 1.043 2.242 1.224v0c0.012 0.197-0.103 0.432-0.345 0.705-0.237 0.269-0.439 0.352-0.605 0.249v0c-1.431-0.706-2.557-0.921-3.377-0.645-0.825 0.281-1.672 0.915-2.543 1.9v0l-1.853 2.098c-1.591 1.801-2.27 2.845-2.036 3.131v0c0.41 0.549 1.242 1.377 2.496 2.485v0l5.023 4.438c0.124 0.11 0.584-0.285 1.38-1.186v0l1.471-1.664c0.519-0.587 0.895-1.013 1.127-1.277 0.229-0.259 0.43-0.572 0.606-0.94 0.18-0.364 0.295-0.599 0.344-0.706 0.055-0.102 0.017-0.33-0.113-0.684-0.135-0.359-0.251-0.598-0.348-0.72-0.092-0.126-0.325-0.464-0.698-1.015v0c-0.127-0.147-0.06-0.368 0.199-0.661v0c0.224-0.254 0.435-0.387 0.632-0.399v0l5.934 5.242c0.01 0.159-0.097 0.366-0.322 0.62v0c-0.237 0.269-0.469 0.361-0.696 0.276v0c-0.699-0.352-1.234-0.599-1.605-0.741-0.376-0.146-0.613-0.218-0.712-0.217-0.098 0.011-0.244 0.041-0.439 0.091v0c-0.411 0.124-1.476 1.159-3.194 3.105v0c-1.332 1.508-1.904 2.345-1.715 2.512v0l4.866 4.299c1.358 1.2 2.395 1.948 3.109 2.242v0c0.266 0.12 0.999-0.499 2.2-1.857v0l1.332-1.508c1.719-1.946 2.705-3.422 2.958-4.431v0c0.113-0.459 0.052-1.137-0.182-2.034-0.234-0.898-0.646-1.811-1.235-2.739v0c-0.09-0.159-0.025-0.363 0.195-0.612v0c0.352-0.398 0.647-0.602 0.886-0.613v0c0.176 0.342 0.466 0.886 0.87 1.633 0.404 0.746 0.735 1.345 0.993 1.794 0.249 0.45 0.551 0.961 0.906 1.532 0.355 0.571 0.67 1.017 0.944 1.339v0c-0.941 1.065-2.451 2.729-4.532 4.993-2.075 2.269-3.759 4.134-5.052 5.597v0l-3.259 3.885c-0.122 0.008-0.32-0.11-0.593-0.351-0.269-0.237-0.374-0.388-0.318-0.453v0c0.237-0.269 0.519-0.738 0.845-1.407 0.326-0.66 0.441-1.126 0.344-1.397v0c-0.126-0.369-1.048-1.311-2.765-2.828v0l-11.859-10.479c-1.239-1.095-2.203-1.818-2.893-2.171v0c-0.226-0.085-0.656 0.085-1.288 0.51-0.642 0.425-1.081 0.772-1.319 1.041v0c-0.075 0.085-0.236 0.017-0.485-0.202v0c-0.274-0.242-0.415-0.442-0.425-0.602v0c1.008-1.05 2.129-2.274 3.364-3.673z" fill="#000000" data-fill-palette-color="primary"></path><path d="M76.468 17.256v0c-1.127 0.552-1.961 1.067-2.503 1.547v0c-0.087 0.079-0.124 0.216-0.11 0.409 0.019 0.19 0.155 0.589 0.408 1.197 0.247 0.611 0.672 1.53 1.273 2.759v0l2.23 4.553c0.356 0.728 1.626 0.557 3.808-0.511v0l0.939-0.46c0.883-0.432 1.577-1.316 2.084-2.651 0.513-1.338 0.413-2.734-0.298-4.189v0c-1.708-3.489-4.318-4.373-7.831-2.654zM76.266 15.304v0c0.853-0.417 1.779-0.716 2.778-0.895 0.999-0.179 2.048-0.226 3.146-0.142 1.098 0.083 2.152 0.455 3.162 1.113 1.001 0.656 1.804 1.601 2.408 2.835v0c0.514 1.05 0.66 2.345 0.44 3.888-0.23 1.539-0.868 2.953-1.915 4.242v0c-0.201 0.224-0.214 0.386-0.04 0.485v0c2.543 2.023 5.065 3.527 7.565 4.513v0c3.697 1.45 6.299 1.806 7.809 1.068v0c0.147 0.12 0.269 0.278 0.365 0.475v0c0.111 0.227 0.167 0.432 0.169 0.616v0c-0.242 0.215-0.563 0.42-0.963 0.616v0c-3.512 1.72-7.444 1.405-11.796-0.945v0c-0.668-0.353-1.45-0.787-2.345-1.303-0.887-0.512-1.532-0.88-1.937-1.103-0.402-0.217-0.857-0.453-1.366-0.706-0.512-0.245-0.936-0.41-1.274-0.496-0.335-0.08-0.67-0.115-1.006-0.107v0c-0.324 0.033-0.814 0.21-1.47 0.531v0c-0.197 0.096-0.343 0.175-0.439 0.237-0.096 0.062-0.169 0.168-0.22 0.319-0.052 0.151-0.029 0.325 0.066 0.522v0l2.711 5.537c0.823 1.682 1.459 2.723 1.907 3.125v0c0.283 0.261 0.856 0.306 1.718 0.135 0.869-0.174 1.464-0.34 1.786-0.498v0c0.101-0.05 0.238 0.101 0.411 0.454v0c0.108 0.221 0.176 0.42 0.204 0.598v0c-2.572 1.104-4.234 1.84-4.985 2.208v0l-4.497 2.434c-0.115-0.04-0.265-0.247-0.449-0.623v0c-0.161-0.328-0.202-0.511-0.125-0.549v0c0.352-0.172 0.804-0.486 1.358-0.941 0.553-0.456 0.837-0.827 0.851-1.116v0c0.024-0.389-0.468-1.612-1.475-3.669v0l-6.958-14.214c-0.727-1.485-1.342-2.522-1.845-3.111v0c-0.177-0.165-0.638-0.172-1.385-0.021-0.755 0.148-1.294 0.301-1.616 0.459v0c-0.101 0.05-0.225-0.075-0.371-0.373v0c-0.161-0.328-0.215-0.567-0.164-0.718v0l4.548-2.127c0.757-0.371 1.636-0.834 2.635-1.39 1.008-0.553 1.876-1.007 2.604-1.363z" fill="#000000" data-fill-palette-color="primary"></path><path d="M125.96 1.212v0c0.557-0.028 1.1-0.071 1.629-0.131 0.529-0.053 1.101-0.115 1.716-0.185 0.608-0.07 1.107-0.132 1.497-0.184v0c0.059 0.11 0.09 0.341 0.094 0.693 0.004 0.345-0.034 0.52-0.113 0.525v0c-0.285 0.014-0.784 0.139-1.497 0.373-0.713 0.228-1.095 0.443-1.145 0.645v0c-0.197 0.987-0.255 2.29-0.175 3.908v0l0.34 6.824 0.301 0.234 0.288-0.014c0.895-0.045 1.684-0.489 2.367-1.334v0c3.081-3.816 5.341-6.767 6.779-8.854v0c0.63-0.842 0.938-1.39 0.926-1.641v0c-0.023-0.471-0.831-0.667-2.423-0.588v0c-0.113 0.006-0.175-0.118-0.188-0.369-0.013-0.252 0.006-0.479 0.056-0.681v0c0.36 0.015 0.836 0.028 1.428 0.039 0.586 0.011 1.131 0.017 1.636 0.018 0.499 0.008 0.974 0.001 1.425-0.021v0c0.696-0.035 1.487-0.111 2.372-0.228 0.892-0.111 1.506-0.191 1.843-0.241v0c0.059 0.11 0.089 0.311 0.09 0.604 0.002 0.299-0.041 0.451-0.127 0.455v0c-1.688 0.277-2.942 0.924-3.763 1.942v0l-7.918 10.216c-0.213 0.257-0.098 0.626 0.345 1.11v0l10.638 10.589c0.468 0.449 1.074 0.811 1.819 1.087 0.738 0.269 1.311 0.42 1.718 0.453 0.407 0.04 0.737 0.053 0.989 0.04v0c0.139-0.007 0.221 0.238 0.246 0.736v0c0.01 0.199-0.012 0.356-0.066 0.472v0c-2.792-0.001-4.523 0.016-5.193 0.049v0c-0.696 0.035-1.326 0.079-1.888 0.134-0.556 0.054-1.181 0.112-1.876 0.173-0.695 0.061-1.32 0.122-1.876 0.183v0c-0.118-0.107-0.186-0.336-0.203-0.688-0.017-0.345 0.031-0.52 0.143-0.526v0c0.332-0.016 0.713-0.092 1.145-0.226 0.425-0.134 0.633-0.314 0.622-0.54v0c-0.044-0.889-3.394-4.425-10.051-10.609v0c-0.118-0.107-0.526-0.143-1.222-0.108v0c-0.192 0.01-0.283 0.124-0.272 0.342v0l0.341 6.864c0.08 1.618 0.268 2.912 0.562 3.881v0c0.069 0.189 0.47 0.356 1.202 0.499 0.732 0.15 1.241 0.217 1.525 0.203v0c0.08-0.004 0.134 0.16 0.164 0.49 0.03 0.338 0.022 0.577-0.024 0.72v0c-2.799 0-4.42 0.01-4.864 0.032v0c-0.139 0.007-1.81 0.16-5.013 0.459v0c-0.118-0.107-0.185-0.313-0.201-0.618v0c-0.019-0.391 0.027-0.59 0.14-0.596v0c0.365-0.018 0.898-0.131 1.599-0.338 0.701-0.201 1.09-0.413 1.165-0.637v0c0.161-0.766 0.199-2.014 0.113-3.745v0l-0.808-16.234c-0.086-1.731-0.247-2.966-0.483-3.705v0c-0.097-0.221-0.505-0.404-1.224-0.548-0.719-0.15-1.261-0.217-1.625-0.198v0c-0.113 0.006-0.178-0.171-0.196-0.529v0c-0.017-0.338 0.028-0.566 0.135-0.685v0c0.366 0.015 1.108 0.028 2.226 0.039 1.118 0.018 2.055 0.007 2.81-0.03z" fill="#000000" data-fill-palette-color="primary"></path><path d="M192.003 10.305l0.308 0.256-0.045 23.656c-0.001 1.4 0.019 2.484 0.06 3.253v0c0.006 0.45 0.287 0.923 0.844 1.42 0.557 0.497 0.993 0.805 1.31 0.926v0c0.099 0.038 0.054 0.305-0.135 0.801v0c-0.038 0.099-0.112 0.22-0.224 0.362v0c-2.562-1.126-3.974-1.739-4.234-1.838v0c-0.025-0.009-1.563-0.522-4.616-1.536v0c-0.059-0.143-0.02-0.377 0.118-0.701 0.135-0.318 0.256-0.457 0.362-0.417v0c0.31 0.118 0.726 0.202 1.247 0.252 0.515 0.047 0.853-0.019 1.014-0.2v0c0.136-0.19 0.243-0.387 0.321-0.591v0c0.13-0.341 0.236-0.759 0.319-1.254 0.08-0.488 0.129-0.878 0.147-1.17v0l0.018-0.494 0.076-5.034c-0.034-0.134-0.092-0.216-0.173-0.247v0c-0.989-0.462-1.968-0.878-2.935-1.247v0c-1.352-0.516-3.034-1.082-5.044-1.7v0l-0.238 0.038-3.327 3.666c-0.937 1.135-1.501 1.95-1.69 2.447v0c-0.14 0.366-0.137 0.666 0.009 0.899v0c0.165 0.276 0.485 0.572 0.961 0.889 0.476 0.317 0.832 0.52 1.068 0.609v0c0.081 0.031 0.068 0.204-0.038 0.519-0.108 0.321-0.212 0.537-0.311 0.649v0c-2.562-1.126-3.884-1.705-3.964-1.736v0c-0.521-0.199-0.982-0.36-1.382-0.484-0.4-0.124-0.847-0.266-1.341-0.426-0.493-0.16-0.966-0.308-1.418-0.445v0c-0.065-0.146-0.043-0.361 0.065-0.647v0c0.14-0.366 0.262-0.529 0.367-0.489v0c0.31 0.118 0.738 0.207 1.285 0.266 0.546 0.059 0.957 0.006 1.233-0.158v0c0.816-0.499 1.895-1.494 3.238-2.987v0l13.483-14.897c0.106-0.109 0.256-0.29 0.452-0.542 0.202-0.25 0.359-0.439 0.472-0.567 0.104-0.124 0.25-0.274 0.438-0.451 0.191-0.183 0.343-0.313 0.458-0.39 0.121-0.075 0.265-0.155 0.433-0.24 0.168-0.085 0.332-0.126 0.494-0.121 0.164-0.001 0.336 0.032 0.516 0.101zM182.383 22.956v0c1.337 0.574 2.254 0.955 2.751 1.144v0c1.148 0.438 2.351 0.85 3.61 1.239v0l0.186-0.153 0.136-9.861-6.697 7.444c-0.04 0.105-0.036 0.168 0.014 0.187z" fill="#000000" data-fill-palette-color="primary"></path><path d="M233.485 61.595l9.166-9.257c1.201-1.213 1.994-2.156 2.38-2.829v0c0.102-0.216-0.088-0.709-0.57-1.476-0.473-0.768-0.84-1.28-1.1-1.537v0c-0.08-0.079-0.008-0.232 0.216-0.459 0.229-0.231 0.423-0.347 0.583-0.348v0c0.236 0.281 0.718 0.827 1.445 1.641 0.722 0.818 1.35 1.491 1.883 2.019v0c0.519 0.514 1.201 1.128 2.045 1.842 0.844 0.714 1.334 1.139 1.471 1.274v0c-0.079 0.165-0.207 0.337-0.385 0.516v0c-0.234 0.236-0.39 0.314-0.47 0.235v0c-0.198-0.196-0.709-0.543-1.534-1.042-0.819-0.503-1.318-0.702-1.496-0.598v0c-0.768 0.455-1.761 1.298-2.98 2.529v0l-11.198 11.31c-1.219 1.231-2.564 2.651-4.035 4.26v0c-0.16 0.001-0.388-0.146-0.686-0.44v0c-0.34-0.336-0.441-0.89-0.304-1.661v0l4.658-27.806-12.585 12.711c-1.299 1.312-2.144 2.302-2.535 2.971v0c-0.098 0.184 0.092 0.657 0.571 1.419 0.478 0.772 0.816 1.257 1.014 1.453v0c0.057 0.056-0.025 0.209-0.244 0.459-0.229 0.25-0.413 0.403-0.554 0.461v0c-1.884-2.061-2.976-3.241-3.279-3.54v0l-3.565-3.236c-0.001-0.122 0.116-0.301 0.349-0.537v0c0.276-0.278 0.444-0.387 0.506-0.327v0c0.278 0.276 0.804 0.646 1.576 1.112 0.772 0.475 1.276 0.651 1.509 0.528v0c0.712-0.323 1.736-1.159 3.072-2.509v0l11.584-11.699c0.962-0.972 1.63-1.783 2.002-2.432v0c0.097-0.221-0.097-0.699-0.585-1.434-0.487-0.744-0.868-1.252-1.141-1.523v0c-0.08-0.079 0.001-0.242 0.244-0.487 0.248-0.25 0.451-0.376 0.61-0.376v0c1.506 1.575 2.497 2.598 2.974 3.07v0c1.029 1.018 1.842 1.782 2.441 2.291v0c-0.6 2.078-2.052 10.274-4.357 24.586v0c0.398-0.279 0.832-0.657 1.304-1.134z" fill="#000000" data-fill-palette-color="primary"></path><path d="M271.402 87.632c0.649 1.8 1.201 3.27 1.654 4.413 0.453 1.142 1.062 2.597 1.827 4.364 0.762 1.776 1.338 3.158 1.73 4.146v0c0.257 0.648 0.754 1.487 1.491 2.516v0l-5.271 2.947c-0.259-0.112-0.475-0.387-0.648-0.825v0c-0.093-0.235-0.077-0.391 0.049-0.469v0c1.306-0.939 2.067-1.759 2.282-2.459 0.219-0.708 0.036-1.8-0.549-3.275v0c-1.092-2.753-1.853-4.104-2.283-4.055v0c-0.926 0.096-2.272 0.494-4.037 1.194v0l-14.054 5.574c-1.506 0.597-2.669 1.194-3.489 1.791v0c-0.159 0.12-0.188 0.553-0.086 1.298 0.094 0.741 0.192 1.242 0.296 1.501v0c0.042 0.105-0.132 0.234-0.521 0.388v0c-0.204 0.081-0.397 0.125-0.579 0.134v0c-0.898-2.644-1.43-4.172-1.594-4.586v0c-0.054-0.136-0.737-1.669-2.049-4.598v0c0.063-0.147 0.237-0.276 0.521-0.389v0c0.364-0.144 0.567-0.164 0.609-0.059v0c0.132 0.333 0.411 0.801 0.835 1.404 0.416 0.599 0.742 0.899 0.978 0.898v0c0.775-0.1 1.967-0.47 3.578-1.108v0l14.1-5.592c2.253-0.893 3.543-1.541 3.869-1.942v0c0.308-0.358-0.053-1.836-1.083-4.435v0c-0.587-1.481-1.202-2.402-1.846-2.761-0.636-0.362-1.752-0.437-3.346-0.226v0c-0.146 0.029-0.265-0.074-0.358-0.308v0c-0.176-0.444-0.207-0.793-0.093-1.045v0l5.857-1.466c0.169 1.254 0.382 2.206 0.639 2.853v0c0.392 0.988 0.915 2.38 1.571 4.177z" fill="#000000" data-fill-palette-color="primary"></path><path d="M38.158 176.942v0c0.202 0.527 0.411 1.037 0.629 1.53 0.215 0.487 0.455 1.013 0.721 1.579 0.258 0.562 0.469 1.022 0.635 1.378v0c-0.084 0.096-0.293 0.201-0.626 0.315-0.333 0.113-0.516 0.13-0.547 0.049v0c-0.1-0.26-0.374-0.699-0.824-1.316-0.441-0.613-0.765-0.912-0.972-0.897v0c-1.008 0.116-2.278 0.467-3.809 1.053v0l-6.428 2.461-0.135 0.372 0.107 0.279c0.321 0.837 0.994 1.454 2.02 1.85v0c4.625 1.756 8.164 2.996 10.618 3.72v0c1.002 0.334 1.622 0.456 1.857 0.366v0c0.446-0.171 0.384-1.004-0.189-2.498v0c-0.04-0.105 0.057-0.203 0.293-0.294 0.242-0.093 0.462-0.149 0.661-0.167v0c0.106 0.351 0.246 0.809 0.42 1.375 0.168 0.568 0.331 1.096 0.489 1.583 0.156 0.481 0.314 0.932 0.475 1.353v0c0.252 0.657 0.57 1.396 0.955 2.216 0.391 0.817 0.66 1.379 0.806 1.686v0c-0.086 0.09-0.268 0.181-0.546 0.273-0.284 0.094-0.441 0.101-0.472 0.02v0c-0.801-1.535-1.816-2.533-3.045-2.993v0l-12.274-4.398c-0.316-0.121-0.637 0.109-0.962 0.689v0l-6.815 13.508c-0.285 0.593-0.441 1.289-0.47 2.089-0.03 0.794 0.002 1.389 0.098 1.786 0.091 0.406 0.182 0.727 0.272 0.962v0c0.05 0.13-0.161 0.286-0.632 0.466v0c-0.186 0.071-0.341 0.102-0.466 0.093v0c-0.876-2.679-1.436-4.335-1.678-4.967v0c-0.252-0.657-0.491-1.245-0.717-1.762-0.227-0.518-0.478-1.1-0.754-1.748-0.276-0.648-0.531-1.229-0.764-1.745v0c0.065-0.146 0.262-0.282 0.59-0.407 0.329-0.126 0.513-0.136 0.554-0.031v0c0.121 0.316 0.311 0.656 0.571 1.019 0.262 0.369 0.499 0.513 0.709 0.432v0c0.843-0.323 3.188-4.644 7.035-12.963v0c0.065-0.146-0.028-0.547-0.28-1.205v0c-0.071-0.186-0.212-0.239-0.423-0.158v0l-6.474 2.479c-1.525 0.584-2.705 1.171-3.539 1.76v0c-0.158 0.125-0.194 0.561-0.106 1.31 0.09 0.755 0.185 1.262 0.284 1.522v0c0.031 0.081-0.109 0.188-0.42 0.322-0.311 0.133-0.543 0.197-0.695 0.191v0c-0.876-2.679-1.395-4.229-1.557-4.651v0c-0.05-0.13-0.719-1.683-2.008-4.66v0c0.065-0.146 0.243-0.274 0.535-0.386v0c0.366-0.14 0.569-0.157 0.609-0.052v0c0.131 0.341 0.405 0.816 0.823 1.424 0.414 0.617 0.74 0.922 0.979 0.915v0c0.784-0.087 1.992-0.443 3.623-1.067v0l15.31-5.862c1.637-0.627 2.773-1.168 3.409-1.625v0c0.182-0.155 0.231-0.604 0.145-1.346-0.089-0.734-0.199-1.271-0.329-1.612v0c-0.04-0.105 0.11-0.223 0.451-0.354v0c0.316-0.121 0.547-0.149 0.693-0.084v0c0.106 0.351 0.326 1.066 0.662 2.146 0.342 1.078 0.648 1.97 0.918 2.677z" fill="#000000" data-fill-palette-color="primary"></path><path d="M59.187 213.976l0.143 0.374-11.76 20.769c-0.694 1.233-1.211 2.194-1.553 2.884v0c-0.221 0.399-0.208 0.954 0.037 1.665 0.24 0.715 0.469 1.203 0.685 1.464v0c0.072 0.087-0.096 0.3-0.504 0.639v0c-0.087 0.072-0.214 0.143-0.381 0.213v0c-1.696-2.259-2.634-3.496-2.812-3.711v0c-0.017-0.02-1.115-1.232-3.293-3.635v0c0.015-0.159 0.162-0.346 0.441-0.56 0.279-0.215 0.455-0.279 0.527-0.192v0c0.216 0.26 0.542 0.538 0.977 0.833 0.434 0.304 0.763 0.415 0.988 0.331v0c0.212-0.098 0.405-0.22 0.578-0.364v0c0.281-0.233 0.578-0.545 0.893-0.936 0.314-0.391 0.554-0.71 0.718-0.959v0l0.244-0.423 2.568-4.389c0.036-0.133 0.026-0.233-0.028-0.299v0c-0.638-0.903-1.29-1.755-1.957-2.557v0c-0.934-1.123-2.131-2.45-3.594-3.981v0l-0.232-0.092-4.735 1.579c-1.388 0.532-2.289 0.97-2.703 1.314v0c-0.301 0.25-0.446 0.518-0.434 0.801v0c0.013 0.317 0.149 0.735 0.407 1.254 0.264 0.515 0.476 0.869 0.638 1.063v0c0.055 0.066-0.043 0.213-0.295 0.44-0.252 0.227-0.451 0.362-0.596 0.405v0c-1.692-2.254-2.566-3.414-2.621-3.481v0c-0.361-0.434-0.685-0.803-0.973-1.108-0.292-0.31-0.616-0.658-0.972-1.045-0.351-0.381-0.693-0.745-1.024-1.091v0c0.015-0.159 0.142-0.338 0.382-0.538v0c0.301-0.25 0.488-0.332 0.56-0.245v0c0.216 0.26 0.551 0.548 1.003 0.863 0.451 0.324 0.837 0.483 1.158 0.475v0c0.965-0.034 2.406-0.372 4.323-1.016v0l19.235-6.416c0.141-0.048 0.364-0.134 0.667-0.257 0.299-0.119 0.526-0.208 0.683-0.269 0.156-0.052 0.361-0.11 0.617-0.177 0.256-0.066 0.453-0.104 0.591-0.115 0.142-0.006 0.307-0.005 0.495 0.003 0.193 0.004 0.361 0.05 0.503 0.139 0.144 0.079 0.279 0.195 0.406 0.348zM44.463 220.334v0c0.888 1.162 1.503 1.949 1.848 2.363v0c0.794 0.955 1.646 1.913 2.556 2.874v0l0.244-0.034 4.995-8.606-9.57 3.226c-0.087 0.072-0.111 0.131-0.073 0.177z" fill="#000000" data-fill-palette-color="primary"></path><path d="M81.841 236.278v0c-1.078-0.668-1.969-1.102-2.672-1.303v0c-0.11-0.037-0.243 0.002-0.4 0.116-0.154 0.123-0.426 0.455-0.815 0.994-0.383 0.544-0.937 1.4-1.661 2.568v0l-2.695 4.353c-0.43 0.694 0.397 1.686 2.479 2.976v0l0.898 0.556c0.841 0.521 1.971 0.639 3.389 0.353 1.415-0.28 2.552-1.114 3.412-2.502v0c2.063-3.331 1.417-6.034-1.935-8.111zM83.397 235.052v0c0.813 0.503 1.565 1.137 2.255 1.9 0.689 0.754 1.291 1.623 1.807 2.607 0.521 0.987 0.77 2.086 0.746 3.297-0.024 1.211-0.399 2.404-1.126 3.578v0c-0.622 1.005-1.65 1.825-3.082 2.461-1.438 0.632-2.991 0.85-4.658 0.654v0c-0.302-0.054-0.449 0.019-0.44 0.219v0c-0.357 3.262-0.285 6.224 0.215 8.884v0c0.747 3.938 1.838 6.351 3.272 7.239v0c-0.018 0.192-0.086 0.384-0.205 0.577v0c-0.133 0.215-0.28 0.37-0.44 0.465v0c-0.305-0.087-0.65-0.25-1.034-0.488v0c-3.353-2.077-5.195-5.603-5.525-10.58v0c-0.059-0.763-0.106-1.663-0.144-2.701-0.04-1.032-0.073-1.779-0.1-2.241-0.029-0.471-0.074-0.991-0.135-1.559-0.065-0.563-0.151-1.011-0.258-1.343-0.113-0.335-0.26-0.645-0.443-0.931v0c-0.206-0.26-0.619-0.583-1.24-0.967v0c-0.192-0.119-0.341-0.2-0.447-0.242-0.103-0.048-0.232-0.054-0.388-0.017-0.155 0.037-0.293 0.151-0.411 0.342v0l-3.267 5.276c-0.996 1.609-1.547 2.713-1.653 3.311v0c-0.074 0.384 0.197 0.899 0.812 1.545 0.609 0.643 1.069 1.06 1.38 1.253v0c0.096 0.059 0.041 0.256-0.165 0.589v0c-0.133 0.215-0.267 0.381-0.404 0.5v0c-2.326-1.604-3.847-2.628-4.564-3.073v0l-4.496-2.538c-0.022-0.115 0.078-0.354 0.302-0.715v0c0.192-0.31 0.322-0.445 0.39-0.403v0c0.339 0.21 0.851 0.429 1.537 0.659 0.689 0.224 1.16 0.265 1.411 0.124v0c0.348-0.183 1.13-1.257 2.346-3.221v0l8.411-13.582c0.874-1.411 1.427-2.494 1.66-3.248v0c0.045-0.237-0.195-0.636-0.723-1.197-0.536-0.559-0.96-0.934-1.27-1.127v0c-0.096-0.059-0.055-0.233 0.123-0.521v0c0.192-0.31 0.366-0.484 0.522-0.52v0l4.268 2.737c0.723 0.447 1.589 0.953 2.599 1.515 1.014 0.557 1.868 1.051 2.562 1.482z" fill="#000000" data-fill-palette-color="primary"></path><path d="M116.367 248.469l0.338 0.214 3.02 23.676c0.183 1.403 0.344 2.482 0.484 3.239v0c0.062 0.452 0.405 0.889 1.027 1.312 0.621 0.429 1.096 0.683 1.425 0.761v0c0.11 0.026 0.103 0.298-0.021 0.815v0c-0.026 0.11-0.085 0.242-0.177 0.398v0c-2.712-0.793-4.203-1.222-4.474-1.288v0c-0.026-0.006-1.63-0.319-4.814-0.939v0c-0.083-0.136-0.078-0.374 0.017-0.713 0.095-0.339 0.197-0.496 0.307-0.469v0c0.329 0.079 0.756 0.106 1.281 0.082 0.53-0.016 0.86-0.125 0.99-0.326v0c0.111-0.206 0.192-0.418 0.245-0.638v0c0.085-0.355 0.137-0.783 0.154-1.284 0.018-0.501 0.018-0.9 0-1.198v0l-0.057-0.485-0.571-5.053c-0.051-0.128-0.119-0.203-0.203-0.223v0c-1.052-0.341-2.084-0.633-3.098-0.875v0c-1.421-0.34-3.174-0.686-5.262-1.036v0l-0.241 0.065-2.847 4.1c-0.793 1.257-1.252 2.148-1.377 2.671v0c-0.091 0.381-0.047 0.682 0.132 0.902v0c0.2 0.246 0.56 0.499 1.077 0.76 0.519 0.254 0.902 0.411 1.147 0.47v0c0.084 0.02 0.093 0.196 0.027 0.529-0.066 0.332-0.144 0.559-0.235 0.681v0c-2.705-0.792-4.1-1.198-4.183-1.218v0c-0.549-0.132-1.03-0.233-1.443-0.305-0.419-0.073-0.887-0.158-1.404-0.254-0.51-0.095-1.001-0.182-1.473-0.261v0c-0.083-0.136-0.089-0.356-0.016-0.66v0c0.091-0.381 0.192-0.558 0.301-0.532v0c0.329 0.079 0.769 0.109 1.32 0.091 0.556-0.01 0.96-0.115 1.212-0.313v0c0.753-0.605 1.704-1.739 2.854-3.403v0l11.561-16.657c0.084-0.123 0.211-0.325 0.381-0.606 0.168-0.274 0.296-0.482 0.385-0.624 0.094-0.135 0.223-0.305 0.389-0.511 0.165-0.206 0.3-0.355 0.404-0.446 0.11-0.09 0.243-0.188 0.398-0.294 0.157-0.113 0.319-0.176 0.486-0.191 0.162-0.023 0.341-0.011 0.534 0.036zM108.383 262.379v0c1.407 0.399 2.371 0.661 2.895 0.786v0c1.207 0.289 2.464 0.546 3.768 0.77v0l0.175-0.173-1.154-9.884-5.731 8.315c-0.026 0.11-0.01 0.172 0.047 0.186z" fill="#000000" data-fill-palette-color="primary"></path><path d="M142.54 251.521v0c0.562-0.05 1.11-0.113 1.643-0.187 0.527-0.074 1.099-0.162 1.716-0.264 0.611-0.095 1.111-0.173 1.499-0.235v0c0.07 0.107 0.114 0.336 0.132 0.688 0.018 0.352-0.016 0.531-0.101 0.539v0c-0.278 0.025-0.775 0.17-1.491 0.434-0.71 0.257-1.086 0.488-1.128 0.691v0c-0.163 1.001-0.172 2.319-0.025 3.952v0l0.615 6.855 0.321 0.231 0.298-0.027c0.893-0.08 1.67-0.56 2.33-1.439v0c2.95-3.971 5.108-7.038 6.474-9.201v0c0.595-0.873 0.881-1.436 0.858-1.687v0c-0.043-0.476-0.861-0.643-2.455-0.499v0c-0.112 0.01-0.18-0.111-0.202-0.362-0.023-0.258-0.017-0.485 0.019-0.682v0c0.366-0.006 0.845-0.016 1.437-0.029 0.593-0.007 1.145-0.019 1.656-0.039 0.505-0.019 0.982-0.048 1.432-0.088v0c0.701-0.063 1.498-0.168 2.392-0.315 0.893-0.154 1.507-0.259 1.842-0.316v0c0.063 0.108 0.101 0.308 0.114 0.6 0.013 0.299-0.023 0.452-0.109 0.46v0c-1.695 0.352-2.932 1.057-3.71 2.113v0l-7.577 10.61c-0.202 0.271-0.069 0.643 0.4 1.114v0l11.139 10.24c0.492 0.436 1.12 0.776 1.882 1.021 0.755 0.245 1.337 0.377 1.745 0.393 0.415 0.023 0.749 0.023 1 0v0c0.139-0.012 0.231 0.233 0.276 0.735v0c0.018 0.198 0.005 0.356-0.037 0.474v0c-2.816 0.113-4.562 0.2-5.237 0.26v0c-0.701 0.063-1.331 0.133-1.891 0.21-0.56 0.077-1.189 0.16-1.888 0.249-0.699 0.089-1.327 0.176-1.886 0.26v0c-0.123-0.102-0.2-0.329-0.231-0.68-0.031-0.35 0.009-0.531 0.121-0.541v0c0.337-0.03 0.716-0.121 1.136-0.272 0.426-0.152 0.629-0.34 0.609-0.564v0c-0.081-0.899-3.599-4.333-10.555-10.302v0c-0.123-0.102-0.534-0.122-1.235-0.059v0c-0.198 0.018-0.287 0.139-0.267 0.364v0l0.62 6.904c0.146 1.627 0.389 2.922 0.728 3.884v0c0.077 0.186 0.487 0.34 1.232 0.46 0.751 0.119 1.265 0.166 1.542 0.141v0c0.086-0.008 0.151 0.156 0.195 0.493 0.044 0.336 0.042 0.576-0.006 0.72v0c-2.816 0.113-4.449 0.19-4.899 0.23v0c-0.139 0.012-1.816 0.233-5.03 0.662v0c-0.123-0.102-0.198-0.309-0.226-0.62v0c-0.035-0.39 0.004-0.59 0.116-0.6v0c0.364-0.033 0.895-0.167 1.594-0.403 0.706-0.23 1.089-0.461 1.148-0.693v0c0.13-0.778 0.117-2.037-0.04-3.777v0l-1.466-16.327c-0.157-1.746-0.368-2.987-0.634-3.723v0c-0.1-0.218-0.518-0.387-1.256-0.508-0.73-0.114-1.277-0.155-1.641-0.122v0c-0.112 0.01-0.185-0.167-0.217-0.531v0c-0.03-0.337 0.006-0.567 0.108-0.689v0c0.366-0.006 1.115-0.023 2.245-0.052 1.13-0.035 2.072-0.086 2.826-0.154z" fill="#000000" data-fill-palette-color="primary"></path><path d="M183.892 241.377l0.398-0.035 16.786 16.968c0.997 1.003 1.781 1.763 2.352 2.279v0c0.324 0.321 0.862 0.46 1.613 0.417 0.754-0.037 1.285-0.124 1.595-0.261v0c0.103-0.046 0.263 0.174 0.478 0.659v0c0.046 0.103 0.079 0.244 0.101 0.424v0c-2.636 1.018-4.081 1.583-4.336 1.696v0c-0.024 0.011-1.489 0.737-4.394 2.18v0c-0.149-0.057-0.289-0.25-0.419-0.576-0.131-0.327-0.144-0.513-0.042-0.56v0c0.309-0.137 0.665-0.375 1.068-0.713 0.411-0.335 0.607-0.622 0.587-0.861v0c-0.037-0.231-0.101-0.449-0.193-0.655v0c-0.148-0.334-0.367-0.705-0.657-1.114-0.29-0.409-0.533-0.726-0.728-0.951v0l-0.341-0.35-3.524-3.666c-0.119-0.071-0.217-0.089-0.296-0.054v0c-1.042 0.368-2.04 0.764-2.993 1.187v0c-1.335 0.593-2.938 1.384-4.808 2.375v0l-0.152 0.198 0.231 4.986c0.134 1.481 0.311 2.467 0.529 2.958v0c0.159 0.358 0.377 0.57 0.653 0.637v0c0.309 0.074 0.748 0.057 1.317-0.051 0.567-0.114 0.966-0.222 1.197-0.325v0c0.079-0.035 0.193 0.1 0.343 0.404 0.15 0.304 0.225 0.532 0.227 0.684v0c-2.63 1.015-3.984 1.54-4.063 1.575v0c-0.516 0.229-0.96 0.441-1.331 0.634-0.378 0.197-0.801 0.414-1.269 0.651-0.463 0.234-0.906 0.464-1.329 0.688v0c-0.149-0.057-0.287-0.229-0.414-0.514v0c-0.159-0.358-0.187-0.56-0.083-0.605v0c0.309-0.137 0.677-0.381 1.103-0.73 0.435-0.346 0.692-0.674 0.772-0.986v0c0.23-0.938 0.297-2.416 0.199-4.436v0l-0.94-20.255c-0.008-0.149-0.03-0.386-0.066-0.712-0.033-0.32-0.057-0.563-0.073-0.73-0.007-0.164-0.008-0.378-0.002-0.642 0.006-0.264 0.023-0.464 0.05-0.599 0.033-0.138 0.079-0.297 0.138-0.476 0.056-0.185 0.146-0.334 0.27-0.447 0.115-0.117 0.264-0.215 0.446-0.296zM186.003 257.276v0c1.359-0.538 2.285-0.916 2.777-1.135v0c1.135-0.504 2.289-1.063 3.461-1.678v0l0.033-0.244-6.922-7.148 0.501 10.086c0.046 0.103 0.096 0.143 0.15 0.119z" fill="#000000" data-fill-palette-color="primary"></path><path d="M205.806 228.606v0c0.25-0.228 1.57-1.541 3.957-3.938v0c0.12 0.043 0.282 0.192 0.487 0.446 0.205 0.245 0.278 0.394 0.218 0.448v0c-0.358 0.326-0.681 0.781-0.966 1.364-0.286 0.583-0.266 1.054 0.06 1.413v0c0.206 0.226 0.605 0.433 1.197 0.621v0l9.532 3.445c0.197 0.009 0.28-0.107 0.249-0.348v0c-1.072-6.871-1.941-10.672-2.607-11.403v0c-0.206-0.226-0.62-0.267-1.242-0.122-0.627 0.149-1.243 0.498-1.847 1.048v0c-0.083 0.076-0.232-0.004-0.447-0.24-0.219-0.241-0.325-0.441-0.317-0.6v0c2.425-1.982 3.708-3.038 3.85-3.167v0c0.648-0.59 1.287-1.23 1.917-1.919 0.634-0.685 1.044-1.112 1.231-1.282v0c0.156 0.083 0.319 0.217 0.488 0.404v0c0.228 0.25 0.3 0.414 0.217 0.49v0c-0.25 0.228-0.603 0.724-1.057 1.487-0.454 0.754-0.661 1.36-0.622 1.818v0c0.322 1.952 0.866 4.863 1.633 8.735 0.767 3.881 1.282 5.966 1.545 6.256v0l4.324 4.751c1.175 1.292 2.141 2.185 2.898 2.682v0c0.174 0.102 0.592-0.005 1.256-0.322 0.664-0.317 1.089-0.56 1.275-0.729v0c0.083-0.076 0.248 0.021 0.494 0.291v0c0.152 0.167 0.264 0.334 0.336 0.502v0c-2.176 1.792-3.389 2.801-3.64 3.029v0c-0.064 0.058-1.247 1.229-3.549 3.513v0c-0.159-0.008-0.335-0.117-0.528-0.328v0c-0.246-0.27-0.327-0.443-0.243-0.519v0c0.25-0.228 0.564-0.648 0.94-1.26 0.381-0.607 0.528-1.023 0.44-1.248v0c-0.423-0.8-1.251-1.878-2.484-3.234v0l-3.553-3.904c-0.264-0.29-1.014-0.666-2.252-1.128-1.238-0.453-4.684-1.631-10.339-3.533v0c-0.897-0.324-1.545-0.524-1.946-0.6-0.396-0.08-0.863-0.081-1.402-0.002v0c-0.378 0.039-0.865 0.194-1.461 0.467-0.591 0.268-0.989 0.496-1.195 0.684v0c-0.083 0.076-0.228 0.001-0.434-0.225v0c-0.228-0.25-0.338-0.455-0.33-0.615v0c0.352-0.284 0.948-0.759 1.787-1.425 0.835-0.67 1.545-1.271 2.13-1.803z" fill="#000000" data-fill-palette-color="primary"></path><path d="M247.06 216.3l-13.686-9.024c-1.463-0.965-2.564-1.575-3.302-1.832v0c-0.236-0.052-0.629 0.17-1.179 0.667-0.548 0.506-0.923 0.911-1.124 1.215v0c-0.062 0.094-0.246 0.041-0.55-0.16v0c-0.283-0.186-0.44-0.358-0.473-0.514v0c1.9-2.628 2.888-4.001 2.966-4.117v0c0.249-0.377 1.091-1.782 2.528-4.215v0c0.168 0.047 0.357 0.14 0.568 0.279v0c0.333 0.219 0.468 0.376 0.405 0.471v0c-0.154 0.233-0.35 0.712-0.589 1.436-0.241 0.716-0.293 1.151-0.157 1.305v0c0.678 0.757 1.701 1.587 3.071 2.49v0l13.404 8.837c1.364 0.899 2.53 1.513 3.498 1.842v0c0.19 0.062 0.564-0.161 1.121-0.669 0.561-0.513 0.918-0.886 1.071-1.119v0c0.062-0.094 0.268-0.026 0.617 0.204v0c0.188 0.124 0.34 0.256 0.455 0.396v0c-1.67 2.279-2.629 3.607-2.877 3.984v0c-0.077 0.116-0.949 1.566-2.616 4.347v0c-0.156 0.032-0.365-0.038-0.626-0.209v0c-0.327-0.216-0.46-0.371-0.397-0.465v0c0.201-0.305 0.429-0.807 0.683-1.506 0.256-0.69 0.314-1.133 0.173-1.33v0c-0.531-0.581-1.526-1.352-2.984-2.313z" fill="#000000" data-fill-palette-color="primary"></path><path d="M244.145 190.207v0c-2.038-0.75-3.424-2.144-4.16-4.183-0.733-2.046-0.72-4.1 0.039-6.162v0c0.213-0.58 0.446-1.116 0.698-1.611 0.257-0.486 0.487-0.882 0.692-1.189 0.196-0.303 0.495-0.731 0.897-1.283 0.404-0.559 0.746-1.056 1.026-1.49v0c1.513 0.196 3.459 0.731 5.839 1.607v0c0.187 0.069 0.232 0.234 0.136 0.495v0c-0.234 0.636-0.491 0.93-0.77 0.884v0c-1.216-0.292-2.554-0.144-4.016 0.444-1.461 0.587-2.454 1.594-2.979 3.021v0c-0.585 1.589-0.6 2.853-0.048 3.793 0.553 0.939 1.412 1.623 2.578 2.051v0c0.505 0.186 1.022 0.27 1.552 0.253 0.53-0.017 0.981-0.06 1.352-0.129 0.374-0.075 0.848-0.286 1.422-0.633 0.578-0.339 0.989-0.591 1.233-0.756 0.238-0.167 0.694-0.512 1.368-1.036 0.671-0.517 1.093-0.847 1.266-0.988v0c0.131-0.107 0.586-0.467 1.363-1.08 0.783-0.61 1.326-1.026 1.626-1.248 0.307-0.22 0.833-0.543 1.577-0.969 0.746-0.433 1.368-0.717 1.864-0.854 0.5-0.127 1.096-0.209 1.787-0.244 0.684-0.031 1.343 0.07 1.979 0.304v0c2.112 0.777 3.547 2.242 4.305 4.395 0.749 2.157 0.715 4.345-0.101 6.564v0c-0.234 0.636-0.525 1.293-0.874 1.971-0.357 0.682-0.669 1.243-0.937 1.682-0.27 0.445-0.626 1.001-1.069 1.665-0.434 0.661-0.733 1.128-0.897 1.4v0c-3.496-0.536-5.717-0.978-6.665-1.327v0c-0.162-0.06-0.165-0.301-0.009-0.725v0c0.174-0.474 0.414-0.76 0.72-0.86v0c4.138 0.503 6.848-0.99 8.132-4.479v0c0.488-1.327 0.506-2.598 0.054-3.811-0.45-1.22-1.404-2.098-2.862-2.634v0c-0.523-0.193-1.042-0.292-1.557-0.297-0.506-0.009-0.934 0.021-1.285 0.089-0.355 0.06-0.778 0.248-1.268 0.563-0.491 0.315-0.862 0.564-1.114 0.747-0.243 0.179-0.653 0.524-1.229 1.034-0.577 0.51-0.977 0.857-1.201 1.044v0c-0.731 0.601-1.242 1.022-1.535 1.26-0.297 0.23-0.806 0.613-1.526 1.147-0.724 0.526-1.322 0.883-1.794 1.07-0.472 0.187-1.045 0.397-1.718 0.631-0.673 0.233-1.331 0.331-1.975 0.292-0.648-0.047-1.286-0.187-1.916-0.418z" fill="#000000" data-fill-palette-color="primary"></path><path d="M3.557 144.445c0-5.93 4.807-10.736 10.737-10.737 5.93 0 10.736 4.807 10.736 10.737 0 5.93-4.807 10.736-10.736 10.736-5.93 0-10.736-4.807-10.737-10.736z" fill="#000000" data-fill-palette-color="primary"></path><path d="M254.293 144.445c0-5.93 4.807-10.736 10.737-10.737 5.93 0 10.736 4.807 10.736 10.737 0 5.93-4.807 10.736-10.736 10.736-5.93 0-10.736-4.807-10.737-10.736z" fill="#000000" data-fill-palette-color="primary"></path></g></svg></g></svg></g></svg></g></svg></g></svg></g></svg></g><defs></defs></svg><rect width="512" height="320" fill="none" stroke="none" visibility="hidden"></rect></g></svg></g></svg>