<?xml version="1.0" standalone="no"?>
<svg xmlns="http://www.w3.org/2000/svg" width="2000" height="2000" viewBox="0 0 2000 2000"><defs><clipPath id="clip-path-dot-color"><rect x="109" y="595" width="54" height="54" transform="rotate(0,136,622)"/><rect x="109" y="919" width="54" height="54" transform="rotate(0,136,946)"/><rect x="109" y="973" width="54" height="54" transform="rotate(0,136,1000)"/><rect x="109" y="1081" width="54" height="54" transform="rotate(0,136,1108)"/><rect x="109" y="1297" width="54" height="54" transform="rotate(0,136,1324)"/><rect x="109" y="1351" width="54" height="54" transform="rotate(0,136,1378)"/><rect x="163" y="595" width="54" height="54" transform="rotate(0,190,622)"/><rect x="163" y="703" width="54" height="54" transform="rotate(0,190,730)"/><rect x="163" y="757" width="54" height="54" transform="rotate(0,190,784)"/><rect x="163" y="919" width="54" height="54" transform="rotate(0,190,946)"/><rect x="163" y="1081" width="54" height="54" transform="rotate(0,190,1108)"/><rect x="163" y="1135" width="54" height="54" transform="rotate(0,190,1162)"/><rect x="163" y="1243" width="54" height="54" transform="rotate(0,190,1270)"/><rect x="217" y="541" width="54" height="54" transform="rotate(0,244,568)"/><rect x="217" y="595" width="54" height="54" transform="rotate(0,244,622)"/><rect x="217" y="649" width="54" height="54" transform="rotate(0,244,676)"/><rect x="217" y="757" width="54" height="54" transform="rotate(0,244,784)"/><rect x="217" y="865" width="54" height="54" transform="rotate(0,244,892)"/><rect x="217" y="919" width="54" height="54" transform="rotate(0,244,946)"/><rect x="217" y="973" width="54" height="54" transform="rotate(0,244,1000)"/><rect x="217" y="1027" width="54" height="54" transform="rotate(0,244,1054)"/><rect x="217" y="1081" width="54" height="54" transform="rotate(0,244,1108)"/><rect x="217" y="1135" width="54" height="54" transform="rotate(0,244,1162)"/><rect x="217" y="1189" width="54" height="54" transform="rotate(0,244,1216)"/><rect x="217" y="1243" width="54" height="54" transform="rotate(0,244,1270)"/><rect x="217" y="1351" width="54" height="54" transform="rotate(0,244,1378)"/><rect x="271" y="595" width="54" height="54" transform="rotate(0,298,622)"/><rect x="271" y="649" width="54" height="54" transform="rotate(0,298,676)"/><rect x="271" y="703" width="54" height="54" transform="rotate(0,298,730)"/><rect x="271" y="1027" width="54" height="54" transform="rotate(0,298,1054)"/><rect x="271" y="1135" width="54" height="54" transform="rotate(0,298,1162)"/><rect x="271" y="1243" width="54" height="54" transform="rotate(0,298,1270)"/><rect x="271" y="1297" width="54" height="54" transform="rotate(0,298,1324)"/><rect x="271" y="1351" width="54" height="54" transform="rotate(0,298,1378)"/><rect x="271" y="1405" width="54" height="54" transform="rotate(0,298,1432)"/><rect x="325" y="541" width="54" height="54" transform="rotate(0,352,568)"/><rect x="325" y="595" width="54" height="54" transform="rotate(0,352,622)"/><rect x="325" y="649" width="54" height="54" transform="rotate(0,352,676)"/><rect x="325" y="703" width="54" height="54" transform="rotate(0,352,730)"/><rect x="325" y="865" width="54" height="54" transform="rotate(0,352,892)"/><rect x="325" y="919" width="54" height="54" transform="rotate(0,352,946)"/><rect x="325" y="1135" width="54" height="54" transform="rotate(0,352,1162)"/><rect x="325" y="1351" width="54" height="54" transform="rotate(0,352,1378)"/><rect x="379" y="541" width="54" height="54" transform="rotate(0,406,568)"/><rect x="379" y="595" width="54" height="54" transform="rotate(0,406,622)"/><rect x="379" y="703" width="54" height="54" transform="rotate(0,406,730)"/><rect x="379" y="757" width="54" height="54" transform="rotate(0,406,784)"/><rect x="379" y="811" width="54" height="54" transform="rotate(0,406,838)"/><rect x="379" y="865" width="54" height="54" transform="rotate(0,406,892)"/><rect x="379" y="919" width="54" height="54" transform="rotate(0,406,946)"/><rect x="379" y="1027" width="54" height="54" transform="rotate(0,406,1054)"/><rect x="379" y="1081" width="54" height="54" transform="rotate(0,406,1108)"/><rect x="379" y="1189" width="54" height="54" transform="rotate(0,406,1216)"/><rect x="379" y="1243" width="54" height="54" transform="rotate(0,406,1270)"/><rect x="433" y="541" width="54" height="54" transform="rotate(0,460,568)"/><rect x="433" y="649" width="54" height="54" transform="rotate(0,460,676)"/><rect x="433" y="757" width="54" height="54" transform="rotate(0,460,784)"/><rect x="433" y="865" width="54" height="54" transform="rotate(0,460,892)"/><rect x="433" y="973" width="54" height="54" transform="rotate(0,460,1000)"/><rect x="433" y="1081" width="54" height="54" transform="rotate(0,460,1108)"/><rect x="433" y="1189" width="54" height="54" transform="rotate(0,460,1216)"/><rect x="433" y="1297" width="54" height="54" transform="rotate(0,460,1324)"/><rect x="433" y="1405" width="54" height="54" transform="rotate(0,460,1432)"/><rect x="487" y="757" width="54" height="54" transform="rotate(0,514,784)"/><rect x="487" y="919" width="54" height="54" transform="rotate(0,514,946)"/><rect x="487" y="1027" width="54" height="54" transform="rotate(0,514,1054)"/><rect x="487" y="1135" width="54" height="54" transform="rotate(0,514,1162)"/><rect x="487" y="1189" width="54" height="54" transform="rotate(0,514,1216)"/><rect x="487" y="1243" width="54" height="54" transform="rotate(0,514,1270)"/><rect x="487" y="1297" width="54" height="54" transform="rotate(0,514,1324)"/><rect x="487" y="1351" width="54" height="54" transform="rotate(0,514,1378)"/><rect x="541" y="163" width="54" height="54" transform="rotate(0,568,190)"/><rect x="541" y="325" width="54" height="54" transform="rotate(0,568,352)"/><rect x="541" y="433" width="54" height="54" transform="rotate(0,568,460)"/><rect x="541" y="541" width="54" height="54" transform="rotate(0,568,568)"/><rect x="541" y="595" width="54" height="54" transform="rotate(0,568,622)"/><rect x="541" y="649" width="54" height="54" transform="rotate(0,568,676)"/><rect x="541" y="757" width="54" height="54" transform="rotate(0,568,784)"/><rect x="541" y="973" width="54" height="54" transform="rotate(0,568,1000)"/><rect x="541" y="1027" width="54" height="54" transform="rotate(0,568,1054)"/><rect x="541" y="1189" width="54" height="54" transform="rotate(0,568,1216)"/><rect x="541" y="1243" width="54" height="54" transform="rotate(0,568,1270)"/><rect x="541" y="1297" width="54" height="54" transform="rotate(0,568,1324)"/><rect x="541" y="1351" width="54" height="54" transform="rotate(0,568,1378)"/><rect x="541" y="1459" width="54" height="54" transform="rotate(0,568,1486)"/><rect x="541" y="1567" width="54" height="54" transform="rotate(0,568,1594)"/><rect x="541" y="1621" width="54" height="54" transform="rotate(0,568,1648)"/><rect x="541" y="1729" width="54" height="54" transform="rotate(0,568,1756)"/><rect x="595" y="109" width="54" height="54" transform="rotate(0,622,136)"/><rect x="595" y="163" width="54" height="54" transform="rotate(0,622,190)"/><rect x="595" y="271" width="54" height="54" transform="rotate(0,622,298)"/><rect x="595" y="325" width="54" height="54" transform="rotate(0,622,352)"/><rect x="595" y="649" width="54" height="54" transform="rotate(0,622,676)"/><rect x="595" y="757" width="54" height="54" transform="rotate(0,622,784)"/><rect x="595" y="811" width="54" height="54" transform="rotate(0,622,838)"/><rect x="595" y="865" width="54" height="54" transform="rotate(0,622,892)"/><rect x="595" y="1027" width="54" height="54" transform="rotate(0,622,1054)"/><rect x="595" y="1081" width="54" height="54" transform="rotate(0,622,1108)"/><rect x="595" y="1189" width="54" height="54" transform="rotate(0,622,1216)"/><rect x="595" y="1243" width="54" height="54" transform="rotate(0,622,1270)"/><rect x="595" y="1351" width="54" height="54" transform="rotate(0,622,1378)"/><rect x="595" y="1459" width="54" height="54" transform="rotate(0,622,1486)"/><rect x="595" y="1675" width="54" height="54" transform="rotate(0,622,1702)"/><rect x="595" y="1729" width="54" height="54" transform="rotate(0,622,1756)"/><rect x="595" y="1783" width="54" height="54" transform="rotate(0,622,1810)"/><rect x="649" y="163" width="54" height="54" transform="rotate(0,676,190)"/><rect x="649" y="271" width="54" height="54" transform="rotate(0,676,298)"/><rect x="649" y="325" width="54" height="54" transform="rotate(0,676,352)"/><rect x="649" y="379" width="54" height="54" transform="rotate(0,676,406)"/><rect x="649" y="433" width="54" height="54" transform="rotate(0,676,460)"/><rect x="649" y="487" width="54" height="54" transform="rotate(0,676,514)"/><rect x="649" y="541" width="54" height="54" transform="rotate(0,676,568)"/><rect x="649" y="595" width="54" height="54" transform="rotate(0,676,622)"/><rect x="649" y="703" width="54" height="54" transform="rotate(0,676,730)"/><rect x="649" y="811" width="54" height="54" transform="rotate(0,676,838)"/><rect x="649" y="919" width="54" height="54" transform="rotate(0,676,946)"/><rect x="649" y="973" width="54" height="54" transform="rotate(0,676,1000)"/><rect x="649" y="1081" width="54" height="54" transform="rotate(0,676,1108)"/><rect x="649" y="1189" width="54" height="54" transform="rotate(0,676,1216)"/><rect x="649" y="1351" width="54" height="54" transform="rotate(0,676,1378)"/><rect x="649" y="1675" width="54" height="54" transform="rotate(0,676,1702)"/><rect x="649" y="1783" width="54" height="54" transform="rotate(0,676,1810)"/><rect x="703" y="109" width="54" height="54" transform="rotate(0,730,136)"/><rect x="703" y="379" width="54" height="54" transform="rotate(0,730,406)"/><rect x="703" y="487" width="54" height="54" transform="rotate(0,730,514)"/><rect x="703" y="541" width="54" height="54" transform="rotate(0,730,568)"/><rect x="703" y="595" width="54" height="54" transform="rotate(0,730,622)"/><rect x="703" y="757" width="54" height="54" transform="rotate(0,730,784)"/><rect x="703" y="865" width="54" height="54" transform="rotate(0,730,892)"/><rect x="703" y="919" width="54" height="54" transform="rotate(0,730,946)"/><rect x="703" y="1189" width="54" height="54" transform="rotate(0,730,1216)"/><rect x="703" y="1297" width="54" height="54" transform="rotate(0,730,1324)"/><rect x="703" y="1405" width="54" height="54" transform="rotate(0,730,1432)"/><rect x="703" y="1513" width="54" height="54" transform="rotate(0,730,1540)"/><rect x="703" y="1783" width="54" height="54" transform="rotate(0,730,1810)"/><rect x="703" y="1837" width="54" height="54" transform="rotate(0,730,1864)"/><rect x="757" y="109" width="54" height="54" transform="rotate(0,784,136)"/><rect x="757" y="433" width="54" height="54" transform="rotate(0,784,460)"/><rect x="757" y="757" width="54" height="54" transform="rotate(0,784,784)"/><rect x="757" y="811" width="54" height="54" transform="rotate(0,784,838)"/><rect x="757" y="919" width="54" height="54" transform="rotate(0,784,946)"/><rect x="757" y="973" width="54" height="54" transform="rotate(0,784,1000)"/><rect x="757" y="1297" width="54" height="54" transform="rotate(0,784,1324)"/><rect x="757" y="1351" width="54" height="54" transform="rotate(0,784,1378)"/><rect x="757" y="1405" width="54" height="54" transform="rotate(0,784,1432)"/><rect x="757" y="1513" width="54" height="54" transform="rotate(0,784,1540)"/><rect x="757" y="1567" width="54" height="54" transform="rotate(0,784,1594)"/><rect x="757" y="1621" width="54" height="54" transform="rotate(0,784,1648)"/><rect x="757" y="1675" width="54" height="54" transform="rotate(0,784,1702)"/><rect x="757" y="1783" width="54" height="54" transform="rotate(0,784,1810)"/><rect x="811" y="109" width="54" height="54" transform="rotate(0,838,136)"/><rect x="811" y="325" width="54" height="54" transform="rotate(0,838,352)"/><rect x="811" y="703" width="54" height="54" transform="rotate(0,838,730)"/><rect x="811" y="757" width="54" height="54" transform="rotate(0,838,784)"/><rect x="811" y="919" width="54" height="54" transform="rotate(0,838,946)"/><rect x="811" y="1027" width="54" height="54" transform="rotate(0,838,1054)"/><rect x="811" y="1081" width="54" height="54" transform="rotate(0,838,1108)"/><rect x="811" y="1135" width="54" height="54" transform="rotate(0,838,1162)"/><rect x="811" y="1189" width="54" height="54" transform="rotate(0,838,1216)"/><rect x="811" y="1351" width="54" height="54" transform="rotate(0,838,1378)"/><rect x="811" y="1459" width="54" height="54" transform="rotate(0,838,1486)"/><rect x="811" y="1567" width="54" height="54" transform="rotate(0,838,1594)"/><rect x="811" y="1729" width="54" height="54" transform="rotate(0,838,1756)"/><rect x="865" y="109" width="54" height="54" transform="rotate(0,892,136)"/><rect x="865" y="217" width="54" height="54" transform="rotate(0,892,244)"/><rect x="865" y="433" width="54" height="54" transform="rotate(0,892,460)"/><rect x="865" y="487" width="54" height="54" transform="rotate(0,892,514)"/><rect x="865" y="595" width="54" height="54" transform="rotate(0,892,622)"/><rect x="865" y="649" width="54" height="54" transform="rotate(0,892,676)"/><rect x="865" y="757" width="54" height="54" transform="rotate(0,892,784)"/><rect x="865" y="811" width="54" height="54" transform="rotate(0,892,838)"/><rect x="865" y="865" width="54" height="54" transform="rotate(0,892,892)"/><rect x="865" y="919" width="54" height="54" transform="rotate(0,892,946)"/><rect x="865" y="1081" width="54" height="54" transform="rotate(0,892,1108)"/><rect x="865" y="1189" width="54" height="54" transform="rotate(0,892,1216)"/><rect x="865" y="1351" width="54" height="54" transform="rotate(0,892,1378)"/><rect x="865" y="1405" width="54" height="54" transform="rotate(0,892,1432)"/><rect x="865" y="1459" width="54" height="54" transform="rotate(0,892,1486)"/><rect x="865" y="1513" width="54" height="54" transform="rotate(0,892,1540)"/><rect x="865" y="1621" width="54" height="54" transform="rotate(0,892,1648)"/><rect x="865" y="1783" width="54" height="54" transform="rotate(0,892,1810)"/><rect x="919" y="109" width="54" height="54" transform="rotate(0,946,136)"/><rect x="919" y="217" width="54" height="54" transform="rotate(0,946,244)"/><rect x="919" y="271" width="54" height="54" transform="rotate(0,946,298)"/><rect x="919" y="595" width="54" height="54" transform="rotate(0,946,622)"/><rect x="919" y="703" width="54" height="54" transform="rotate(0,946,730)"/><rect x="919" y="919" width="54" height="54" transform="rotate(0,946,946)"/><rect x="919" y="973" width="54" height="54" transform="rotate(0,946,1000)"/><rect x="919" y="1081" width="54" height="54" transform="rotate(0,946,1108)"/><rect x="919" y="1243" width="54" height="54" transform="rotate(0,946,1270)"/><rect x="919" y="1297" width="54" height="54" transform="rotate(0,946,1324)"/><rect x="919" y="1351" width="54" height="54" transform="rotate(0,946,1378)"/><rect x="919" y="1459" width="54" height="54" transform="rotate(0,946,1486)"/><rect x="919" y="1513" width="54" height="54" transform="rotate(0,946,1540)"/><rect x="919" y="1567" width="54" height="54" transform="rotate(0,946,1594)"/><rect x="919" y="1621" width="54" height="54" transform="rotate(0,946,1648)"/><rect x="973" y="109" width="54" height="54" transform="rotate(0,1000,136)"/><rect x="973" y="163" width="54" height="54" transform="rotate(0,1000,190)"/><rect x="973" y="217" width="54" height="54" transform="rotate(0,1000,244)"/><rect x="973" y="271" width="54" height="54" transform="rotate(0,1000,298)"/><rect x="973" y="325" width="54" height="54" transform="rotate(0,1000,352)"/><rect x="973" y="433" width="54" height="54" transform="rotate(0,1000,460)"/><rect x="973" y="541" width="54" height="54" transform="rotate(0,1000,568)"/><rect x="973" y="703" width="54" height="54" transform="rotate(0,1000,730)"/><rect x="973" y="757" width="54" height="54" transform="rotate(0,1000,784)"/><rect x="973" y="811" width="54" height="54" transform="rotate(0,1000,838)"/><rect x="973" y="1081" width="54" height="54" transform="rotate(0,1000,1108)"/><rect x="973" y="1135" width="54" height="54" transform="rotate(0,1000,1162)"/><rect x="973" y="1189" width="54" height="54" transform="rotate(0,1000,1216)"/><rect x="973" y="1243" width="54" height="54" transform="rotate(0,1000,1270)"/><rect x="973" y="1297" width="54" height="54" transform="rotate(0,1000,1324)"/><rect x="973" y="1351" width="54" height="54" transform="rotate(0,1000,1378)"/><rect x="973" y="1405" width="54" height="54" transform="rotate(0,1000,1432)"/><rect x="973" y="1513" width="54" height="54" transform="rotate(0,1000,1540)"/><rect x="973" y="1621" width="54" height="54" transform="rotate(0,1000,1648)"/><rect x="973" y="1783" width="54" height="54" transform="rotate(0,1000,1810)"/><rect x="1027" y="163" width="54" height="54" transform="rotate(0,1054,190)"/><rect x="1027" y="217" width="54" height="54" transform="rotate(0,1054,244)"/><rect x="1027" y="271" width="54" height="54" transform="rotate(0,1054,298)"/><rect x="1027" y="487" width="54" height="54" transform="rotate(0,1054,514)"/><rect x="1027" y="703" width="54" height="54" transform="rotate(0,1054,730)"/><rect x="1027" y="811" width="54" height="54" transform="rotate(0,1054,838)"/><rect x="1027" y="865" width="54" height="54" transform="rotate(0,1054,892)"/><rect x="1027" y="973" width="54" height="54" transform="rotate(0,1054,1000)"/><rect x="1027" y="1081" width="54" height="54" transform="rotate(0,1054,1108)"/><rect x="1027" y="1297" width="54" height="54" transform="rotate(0,1054,1324)"/><rect x="1027" y="1351" width="54" height="54" transform="rotate(0,1054,1378)"/><rect x="1027" y="1405" width="54" height="54" transform="rotate(0,1054,1432)"/><rect x="1027" y="1675" width="54" height="54" transform="rotate(0,1054,1702)"/><rect x="1027" y="1729" width="54" height="54" transform="rotate(0,1054,1756)"/><rect x="1027" y="1783" width="54" height="54" transform="rotate(0,1054,1810)"/><rect x="1081" y="109" width="54" height="54" transform="rotate(0,1108,136)"/><rect x="1081" y="163" width="54" height="54" transform="rotate(0,1108,190)"/><rect x="1081" y="217" width="54" height="54" transform="rotate(0,1108,244)"/><rect x="1081" y="271" width="54" height="54" transform="rotate(0,1108,298)"/><rect x="1081" y="325" width="54" height="54" transform="rotate(0,1108,352)"/><rect x="1081" y="433" width="54" height="54" transform="rotate(0,1108,460)"/><rect x="1081" y="487" width="54" height="54" transform="rotate(0,1108,514)"/><rect x="1081" y="649" width="54" height="54" transform="rotate(0,1108,676)"/><rect x="1081" y="919" width="54" height="54" transform="rotate(0,1108,946)"/><rect x="1081" y="973" width="54" height="54" transform="rotate(0,1108,1000)"/><rect x="1081" y="1081" width="54" height="54" transform="rotate(0,1108,1108)"/><rect x="1081" y="1189" width="54" height="54" transform="rotate(0,1108,1216)"/><rect x="1081" y="1243" width="54" height="54" transform="rotate(0,1108,1270)"/><rect x="1081" y="1297" width="54" height="54" transform="rotate(0,1108,1324)"/><rect x="1081" y="1351" width="54" height="54" transform="rotate(0,1108,1378)"/><rect x="1081" y="1405" width="54" height="54" transform="rotate(0,1108,1432)"/><rect x="1081" y="1567" width="54" height="54" transform="rotate(0,1108,1594)"/><rect x="1081" y="1675" width="54" height="54" transform="rotate(0,1108,1702)"/><rect x="1081" y="1783" width="54" height="54" transform="rotate(0,1108,1810)"/><rect x="1135" y="109" width="54" height="54" transform="rotate(0,1162,136)"/><rect x="1135" y="163" width="54" height="54" transform="rotate(0,1162,190)"/><rect x="1135" y="217" width="54" height="54" transform="rotate(0,1162,244)"/><rect x="1135" y="325" width="54" height="54" transform="rotate(0,1162,352)"/><rect x="1135" y="487" width="54" height="54" transform="rotate(0,1162,514)"/><rect x="1135" y="541" width="54" height="54" transform="rotate(0,1162,568)"/><rect x="1135" y="757" width="54" height="54" transform="rotate(0,1162,784)"/><rect x="1135" y="865" width="54" height="54" transform="rotate(0,1162,892)"/><rect x="1135" y="919" width="54" height="54" transform="rotate(0,1162,946)"/><rect x="1135" y="973" width="54" height="54" transform="rotate(0,1162,1000)"/><rect x="1135" y="1027" width="54" height="54" transform="rotate(0,1162,1054)"/><rect x="1135" y="1135" width="54" height="54" transform="rotate(0,1162,1162)"/><rect x="1135" y="1189" width="54" height="54" transform="rotate(0,1162,1216)"/><rect x="1135" y="1243" width="54" height="54" transform="rotate(0,1162,1270)"/><rect x="1135" y="1405" width="54" height="54" transform="rotate(0,1162,1432)"/><rect x="1135" y="1459" width="54" height="54" transform="rotate(0,1162,1486)"/><rect x="1135" y="1567" width="54" height="54" transform="rotate(0,1162,1594)"/><rect x="1135" y="1837" width="54" height="54" transform="rotate(0,1162,1864)"/><rect x="1189" y="325" width="54" height="54" transform="rotate(0,1216,352)"/><rect x="1189" y="379" width="54" height="54" transform="rotate(0,1216,406)"/><rect x="1189" y="433" width="54" height="54" transform="rotate(0,1216,460)"/><rect x="1189" y="487" width="54" height="54" transform="rotate(0,1216,514)"/><rect x="1189" y="541" width="54" height="54" transform="rotate(0,1216,568)"/><rect x="1189" y="811" width="54" height="54" transform="rotate(0,1216,838)"/><rect x="1189" y="919" width="54" height="54" transform="rotate(0,1216,946)"/><rect x="1189" y="1027" width="54" height="54" transform="rotate(0,1216,1054)"/><rect x="1189" y="1081" width="54" height="54" transform="rotate(0,1216,1108)"/><rect x="1189" y="1189" width="54" height="54" transform="rotate(0,1216,1216)"/><rect x="1189" y="1513" width="54" height="54" transform="rotate(0,1216,1540)"/><rect x="1189" y="1621" width="54" height="54" transform="rotate(0,1216,1648)"/><rect x="1189" y="1675" width="54" height="54" transform="rotate(0,1216,1702)"/><rect x="1189" y="1783" width="54" height="54" transform="rotate(0,1216,1810)"/><rect x="1189" y="1837" width="54" height="54" transform="rotate(0,1216,1864)"/><rect x="1243" y="109" width="54" height="54" transform="rotate(0,1270,136)"/><rect x="1243" y="271" width="54" height="54" transform="rotate(0,1270,298)"/><rect x="1243" y="325" width="54" height="54" transform="rotate(0,1270,352)"/><rect x="1243" y="595" width="54" height="54" transform="rotate(0,1270,622)"/><rect x="1243" y="649" width="54" height="54" transform="rotate(0,1270,676)"/><rect x="1243" y="703" width="54" height="54" transform="rotate(0,1270,730)"/><rect x="1243" y="757" width="54" height="54" transform="rotate(0,1270,784)"/><rect x="1243" y="811" width="54" height="54" transform="rotate(0,1270,838)"/><rect x="1243" y="919" width="54" height="54" transform="rotate(0,1270,946)"/><rect x="1243" y="1027" width="54" height="54" transform="rotate(0,1270,1054)"/><rect x="1243" y="1135" width="54" height="54" transform="rotate(0,1270,1162)"/><rect x="1243" y="1243" width="54" height="54" transform="rotate(0,1270,1270)"/><rect x="1243" y="1297" width="54" height="54" transform="rotate(0,1270,1324)"/><rect x="1243" y="1351" width="54" height="54" transform="rotate(0,1270,1378)"/><rect x="1243" y="1459" width="54" height="54" transform="rotate(0,1270,1486)"/><rect x="1243" y="1567" width="54" height="54" transform="rotate(0,1270,1594)"/><rect x="1243" y="1675" width="54" height="54" transform="rotate(0,1270,1702)"/><rect x="1243" y="1783" width="54" height="54" transform="rotate(0,1270,1810)"/><rect x="1297" y="325" width="54" height="54" transform="rotate(0,1324,352)"/><rect x="1297" y="433" width="54" height="54" transform="rotate(0,1324,460)"/><rect x="1297" y="487" width="54" height="54" transform="rotate(0,1324,514)"/><rect x="1297" y="757" width="54" height="54" transform="rotate(0,1324,784)"/><rect x="1297" y="811" width="54" height="54" transform="rotate(0,1324,838)"/><rect x="1297" y="973" width="54" height="54" transform="rotate(0,1324,1000)"/><rect x="1297" y="1135" width="54" height="54" transform="rotate(0,1324,1162)"/><rect x="1297" y="1243" width="54" height="54" transform="rotate(0,1324,1270)"/><rect x="1297" y="1297" width="54" height="54" transform="rotate(0,1324,1324)"/><rect x="1297" y="1351" width="54" height="54" transform="rotate(0,1324,1378)"/><rect x="1297" y="1405" width="54" height="54" transform="rotate(0,1324,1432)"/><rect x="1297" y="1459" width="54" height="54" transform="rotate(0,1324,1486)"/><rect x="1297" y="1675" width="54" height="54" transform="rotate(0,1324,1702)"/><rect x="1297" y="1729" width="54" height="54" transform="rotate(0,1324,1756)"/><rect x="1297" y="1783" width="54" height="54" transform="rotate(0,1324,1810)"/><rect x="1351" y="217" width="54" height="54" transform="rotate(0,1378,244)"/><rect x="1351" y="271" width="54" height="54" transform="rotate(0,1378,298)"/><rect x="1351" y="325" width="54" height="54" transform="rotate(0,1378,352)"/><rect x="1351" y="541" width="54" height="54" transform="rotate(0,1378,568)"/><rect x="1351" y="649" width="54" height="54" transform="rotate(0,1378,676)"/><rect x="1351" y="757" width="54" height="54" transform="rotate(0,1378,784)"/><rect x="1351" y="865" width="54" height="54" transform="rotate(0,1378,892)"/><rect x="1351" y="973" width="54" height="54" transform="rotate(0,1378,1000)"/><rect x="1351" y="1135" width="54" height="54" transform="rotate(0,1378,1162)"/><rect x="1351" y="1189" width="54" height="54" transform="rotate(0,1378,1216)"/><rect x="1351" y="1243" width="54" height="54" transform="rotate(0,1378,1270)"/><rect x="1351" y="1351" width="54" height="54" transform="rotate(0,1378,1378)"/><rect x="1351" y="1459" width="54" height="54" transform="rotate(0,1378,1486)"/><rect x="1351" y="1513" width="54" height="54" transform="rotate(0,1378,1540)"/><rect x="1351" y="1567" width="54" height="54" transform="rotate(0,1378,1594)"/><rect x="1351" y="1783" width="54" height="54" transform="rotate(0,1378,1810)"/><rect x="1405" y="109" width="54" height="54" transform="rotate(0,1432,136)"/><rect x="1405" y="163" width="54" height="54" transform="rotate(0,1432,190)"/><rect x="1405" y="217" width="54" height="54" transform="rotate(0,1432,244)"/><rect x="1405" y="379" width="54" height="54" transform="rotate(0,1432,406)"/><rect x="1405" y="433" width="54" height="54" transform="rotate(0,1432,460)"/><rect x="1405" y="541" width="54" height="54" transform="rotate(0,1432,568)"/><rect x="1405" y="595" width="54" height="54" transform="rotate(0,1432,622)"/><rect x="1405" y="649" width="54" height="54" transform="rotate(0,1432,676)"/><rect x="1405" y="811" width="54" height="54" transform="rotate(0,1432,838)"/><rect x="1405" y="865" width="54" height="54" transform="rotate(0,1432,892)"/><rect x="1405" y="1027" width="54" height="54" transform="rotate(0,1432,1054)"/><rect x="1405" y="1189" width="54" height="54" transform="rotate(0,1432,1216)"/><rect x="1405" y="1243" width="54" height="54" transform="rotate(0,1432,1270)"/><rect x="1405" y="1405" width="54" height="54" transform="rotate(0,1432,1432)"/><rect x="1405" y="1459" width="54" height="54" transform="rotate(0,1432,1486)"/><rect x="1405" y="1513" width="54" height="54" transform="rotate(0,1432,1540)"/><rect x="1405" y="1567" width="54" height="54" transform="rotate(0,1432,1594)"/><rect x="1405" y="1621" width="54" height="54" transform="rotate(0,1432,1648)"/><rect x="1405" y="1675" width="54" height="54" transform="rotate(0,1432,1702)"/><rect x="1405" y="1837" width="54" height="54" transform="rotate(0,1432,1864)"/><rect x="1459" y="541" width="54" height="54" transform="rotate(0,1486,568)"/><rect x="1459" y="595" width="54" height="54" transform="rotate(0,1486,622)"/><rect x="1459" y="703" width="54" height="54" transform="rotate(0,1486,730)"/><rect x="1459" y="811" width="54" height="54" transform="rotate(0,1486,838)"/><rect x="1459" y="919" width="54" height="54" transform="rotate(0,1486,946)"/><rect x="1459" y="1081" width="54" height="54" transform="rotate(0,1486,1108)"/><rect x="1459" y="1243" width="54" height="54" transform="rotate(0,1486,1270)"/><rect x="1459" y="1351" width="54" height="54" transform="rotate(0,1486,1378)"/><rect x="1459" y="1405" width="54" height="54" transform="rotate(0,1486,1432)"/><rect x="1459" y="1621" width="54" height="54" transform="rotate(0,1486,1648)"/><rect x="1459" y="1729" width="54" height="54" transform="rotate(0,1486,1756)"/><rect x="1513" y="757" width="54" height="54" transform="rotate(0,1540,784)"/><rect x="1513" y="811" width="54" height="54" transform="rotate(0,1540,838)"/><rect x="1513" y="865" width="54" height="54" transform="rotate(0,1540,892)"/><rect x="1513" y="1081" width="54" height="54" transform="rotate(0,1540,1108)"/><rect x="1513" y="1189" width="54" height="54" transform="rotate(0,1540,1216)"/><rect x="1513" y="1405" width="54" height="54" transform="rotate(0,1540,1432)"/><rect x="1513" y="1513" width="54" height="54" transform="rotate(0,1540,1540)"/><rect x="1513" y="1621" width="54" height="54" transform="rotate(0,1540,1648)"/><rect x="1513" y="1675" width="54" height="54" transform="rotate(0,1540,1702)"/><rect x="1513" y="1783" width="54" height="54" transform="rotate(0,1540,1810)"/><rect x="1567" y="595" width="54" height="54" transform="rotate(0,1594,622)"/><rect x="1567" y="757" width="54" height="54" transform="rotate(0,1594,784)"/><rect x="1567" y="865" width="54" height="54" transform="rotate(0,1594,892)"/><rect x="1567" y="973" width="54" height="54" transform="rotate(0,1594,1000)"/><rect x="1567" y="1027" width="54" height="54" transform="rotate(0,1594,1054)"/><rect x="1567" y="1081" width="54" height="54" transform="rotate(0,1594,1108)"/><rect x="1567" y="1135" width="54" height="54" transform="rotate(0,1594,1162)"/><rect x="1567" y="1297" width="54" height="54" transform="rotate(0,1594,1324)"/><rect x="1567" y="1405" width="54" height="54" transform="rotate(0,1594,1432)"/><rect x="1567" y="1621" width="54" height="54" transform="rotate(0,1594,1648)"/><rect x="1567" y="1783" width="54" height="54" transform="rotate(0,1594,1810)"/><rect x="1621" y="541" width="54" height="54" transform="rotate(0,1648,568)"/><rect x="1621" y="595" width="54" height="54" transform="rotate(0,1648,622)"/><rect x="1621" y="811" width="54" height="54" transform="rotate(0,1648,838)"/><rect x="1621" y="865" width="54" height="54" transform="rotate(0,1648,892)"/><rect x="1621" y="1027" width="54" height="54" transform="rotate(0,1648,1054)"/><rect x="1621" y="1081" width="54" height="54" transform="rotate(0,1648,1108)"/><rect x="1621" y="1135" width="54" height="54" transform="rotate(0,1648,1162)"/><rect x="1621" y="1297" width="54" height="54" transform="rotate(0,1648,1324)"/><rect x="1621" y="1405" width="54" height="54" transform="rotate(0,1648,1432)"/><rect x="1621" y="1459" width="54" height="54" transform="rotate(0,1648,1486)"/><rect x="1621" y="1513" width="54" height="54" transform="rotate(0,1648,1540)"/><rect x="1621" y="1567" width="54" height="54" transform="rotate(0,1648,1594)"/><rect x="1621" y="1621" width="54" height="54" transform="rotate(0,1648,1648)"/><rect x="1621" y="1675" width="54" height="54" transform="rotate(0,1648,1702)"/><rect x="1621" y="1837" width="54" height="54" transform="rotate(0,1648,1864)"/><rect x="1675" y="595" width="54" height="54" transform="rotate(0,1702,622)"/><rect x="1675" y="649" width="54" height="54" transform="rotate(0,1702,676)"/><rect x="1675" y="703" width="54" height="54" transform="rotate(0,1702,730)"/><rect x="1675" y="757" width="54" height="54" transform="rotate(0,1702,784)"/><rect x="1675" y="811" width="54" height="54" transform="rotate(0,1702,838)"/><rect x="1675" y="865" width="54" height="54" transform="rotate(0,1702,892)"/><rect x="1675" y="1027" width="54" height="54" transform="rotate(0,1702,1054)"/><rect x="1675" y="1081" width="54" height="54" transform="rotate(0,1702,1108)"/><rect x="1675" y="1135" width="54" height="54" transform="rotate(0,1702,1162)"/><rect x="1675" y="1189" width="54" height="54" transform="rotate(0,1702,1216)"/><rect x="1675" y="1243" width="54" height="54" transform="rotate(0,1702,1270)"/><rect x="1675" y="1351" width="54" height="54" transform="rotate(0,1702,1378)"/><rect x="1675" y="1513" width="54" height="54" transform="rotate(0,1702,1540)"/><rect x="1675" y="1567" width="54" height="54" transform="rotate(0,1702,1594)"/><rect x="1675" y="1621" width="54" height="54" transform="rotate(0,1702,1648)"/><rect x="1675" y="1675" width="54" height="54" transform="rotate(0,1702,1702)"/><rect x="1675" y="1729" width="54" height="54" transform="rotate(0,1702,1756)"/><rect x="1675" y="1783" width="54" height="54" transform="rotate(0,1702,1810)"/><rect x="1729" y="703" width="54" height="54" transform="rotate(0,1756,730)"/><rect x="1729" y="811" width="54" height="54" transform="rotate(0,1756,838)"/><rect x="1729" y="973" width="54" height="54" transform="rotate(0,1756,1000)"/><rect x="1729" y="1189" width="54" height="54" transform="rotate(0,1756,1216)"/><rect x="1729" y="1459" width="54" height="54" transform="rotate(0,1756,1486)"/><rect x="1729" y="1513" width="54" height="54" transform="rotate(0,1756,1540)"/><rect x="1729" y="1567" width="54" height="54" transform="rotate(0,1756,1594)"/><rect x="1729" y="1621" width="54" height="54" transform="rotate(0,1756,1648)"/><rect x="1729" y="1675" width="54" height="54" transform="rotate(0,1756,1702)"/><rect x="1783" y="541" width="54" height="54" transform="rotate(0,1810,568)"/><rect x="1783" y="649" width="54" height="54" transform="rotate(0,1810,676)"/><rect x="1783" y="703" width="54" height="54" transform="rotate(0,1810,730)"/><rect x="1783" y="865" width="54" height="54" transform="rotate(0,1810,892)"/><rect x="1783" y="919" width="54" height="54" transform="rotate(0,1810,946)"/><rect x="1783" y="1081" width="54" height="54" transform="rotate(0,1810,1108)"/><rect x="1783" y="1243" width="54" height="54" transform="rotate(0,1810,1270)"/><rect x="1783" y="1297" width="54" height="54" transform="rotate(0,1810,1324)"/><rect x="1783" y="1351" width="54" height="54" transform="rotate(0,1810,1378)"/><rect x="1783" y="1405" width="54" height="54" transform="rotate(0,1810,1432)"/><rect x="1783" y="1513" width="54" height="54" transform="rotate(0,1810,1540)"/><rect x="1837" y="595" width="54" height="54" transform="rotate(0,1864,622)"/><rect x="1837" y="703" width="54" height="54" transform="rotate(0,1864,730)"/><rect x="1837" y="865" width="54" height="54" transform="rotate(0,1864,892)"/><rect x="1837" y="1027" width="54" height="54" transform="rotate(0,1864,1054)"/><rect x="1837" y="1081" width="54" height="54" transform="rotate(0,1864,1108)"/><rect x="1837" y="1135" width="54" height="54" transform="rotate(0,1864,1162)"/><rect x="1837" y="1189" width="54" height="54" transform="rotate(0,1864,1216)"/><rect x="1837" y="1243" width="54" height="54" transform="rotate(0,1864,1270)"/><rect x="1837" y="1297" width="54" height="54" transform="rotate(0,1864,1324)"/><rect x="1837" y="1351" width="54" height="54" transform="rotate(0,1864,1378)"/><rect x="1837" y="1405" width="54" height="54" transform="rotate(0,1864,1432)"/><rect x="1837" y="1837" width="54" height="54" transform="rotate(0,1864,1864)"/></clipPath><clipPath id="clip-path-corners-square-color-0-0"><path clip-rule="evenodd" d="M 109 244v 108a 135 135, 0, 0, 0, 135 135h 108a 135 135, 0, 0, 0, 135 -135v -108a 135 135, 0, 0, 0, -135 -135h -108a 135 135, 0, 0, 0, -135 135M 244 163h 108a 81 81, 0, 0, 1, 81 81v 108a 81 81, 0, 0, 1, -81 81h -108a 81 81, 0, 0, 1, -81 -81v -108a 81 81, 0, 0, 1, 81 -81" transform="rotate(0,298,298)"/></clipPath><clipPath id="clip-path-corners-dot-color-0-0"><rect x="217" y="217" width="162" height="162" transform="rotate(0,298,298)"/></clipPath><clipPath id="clip-path-corners-square-color-1-0"><path clip-rule="evenodd" d="M 1513 244v 108a 135 135, 0, 0, 0, 135 135h 108a 135 135, 0, 0, 0, 135 -135v -108a 135 135, 0, 0, 0, -135 -135h -108a 135 135, 0, 0, 0, -135 135M 1648 163h 108a 81 81, 0, 0, 1, 81 81v 108a 81 81, 0, 0, 1, -81 81h -108a 81 81, 0, 0, 1, -81 -81v -108a 81 81, 0, 0, 1, 81 -81" transform="rotate(90,1702,298)"/></clipPath><clipPath id="clip-path-corners-dot-color-1-0"><rect x="1621" y="217" width="162" height="162" transform="rotate(90,1702,298)"/></clipPath><clipPath id="clip-path-corners-square-color-0-1"><path clip-rule="evenodd" d="M 109 1648v 108a 135 135, 0, 0, 0, 135 135h 108a 135 135, 0, 0, 0, 135 -135v -108a 135 135, 0, 0, 0, -135 -135h -108a 135 135, 0, 0, 0, -135 135M 244 1567h 108a 81 81, 0, 0, 1, 81 81v 108a 81 81, 0, 0, 1, -81 81h -108a 81 81, 0, 0, 1, -81 -81v -108a 81 81, 0, 0, 1, 81 -81" transform="rotate(-90,298,1702)"/></clipPath><clipPath id="clip-path-corners-dot-color-0-1"><rect x="217" y="1621" width="162" height="162" transform="rotate(-90,298,1702)"/></clipPath></defs><rect x="109" y="109" height="1782" width="1782" clip-path="url('#clip-path-dot-color')" fill="#000000"/><rect x="109" y="109" height="378" width="378" clip-path="url('#clip-path-corners-square-color-0-0')" fill="#000000"/><rect x="217" y="217" height="162" width="162" clip-path="url('#clip-path-corners-dot-color-0-0')" fill="#000000"/><rect x="1513" y="109" height="378" width="378" clip-path="url('#clip-path-corners-square-color-1-0')" fill="#000000"/><rect x="1621" y="217" height="162" width="162" clip-path="url('#clip-path-corners-dot-color-1-0')" fill="#000000"/><rect x="109" y="1513" height="378" width="378" clip-path="url('#clip-path-corners-square-color-0-1')" fill="#000000"/><rect x="217" y="1621" height="162" width="162" clip-path="url('#clip-path-corners-dot-color-0-1')" fill="#000000"/></svg>